<?xml version="1.0" encoding="utf-8"?>
<!-- Generator: Adobe Illustrator 23.0.3, SVG Export Plug-In . SVG Version: 6.00 Build 0)  -->
<svg version="1.1" id="Layer_1" xmlns="http://www.w3.org/2000/svg" xmlns:xlink="http://www.w3.org/1999/xlink" x="0px" y="0px"
	 viewBox="0 0 566.9 566.9" style="enable-background:new 0 0 566.9 566.9;" xml:space="preserve">
<style type="text/css">
	.Drop_x0020_Shadow{fill:none;}
	.Round_x0020_Corners_x0020_2_x0020_pt{fill:#FFFFFF;stroke:#000000;stroke-miterlimit:10;}
	.Live_x0020_Reflect_x0020_X{fill:none;}
	.Bevel_x0020_Soft{fill:url(#SVGID_1_);}
	.Dusk{fill:#FFFFFF;}
	.Foliage_GS{fill:#FFDD00;}
	.Pompadour_GS{fill-rule:evenodd;clip-rule:evenodd;fill:#51AEE2;}
	.st0{fill:none;stroke:#FFFFFF;stroke-width:5.7326;stroke-miterlimit:10;}
</style>
<linearGradient id="SVGID_1_" gradientUnits="userSpaceOnUse" x1="0" y1="0" x2="0.7071" y2="0.7071">
	<stop  offset="0" style="stop-color:#E6E6EB"/>
	<stop  offset="0.1738" style="stop-color:#E2E2E6"/>
	<stop  offset="0.352" style="stop-color:#D5D4D8"/>
	<stop  offset="0.5323" style="stop-color:#C0BFC2"/>
	<stop  offset="0.7139" style="stop-color:#A4A2A4"/>
	<stop  offset="0.8949" style="stop-color:#828282"/>
	<stop  offset="1" style="stop-color:#6B6E6E"/>
</linearGradient>
<g>
	<path class="st0" d="M515.8,157.1c-0.9,7,0.4,4.7,0,25.9c-0.3,19.9-0.5,30-3.7,39.1c-1.5,4.2-5.1,14-13.5,23.3
		c-4.7,5.2-6.9,5.8-11.2,10.9c-7.7,8.9-10.6,18.1-12,22.6c-4.5,14.1-2.4,25,0.7,52.6c3.3,28.6,5,42.9,3.7,49.9
		c-3.4,20.3-13.7,36.7-19.9,46.6c-9.6,15.3-14.2,16.9-21,31.9c-3.2,7-8,17.5-9.4,31.9c-0.7,6.9,0,8.7-0.7,24.4
		c-0.9,18.3-2,20.7-3,22.1c-4.9,8.1-15.7,12.6-25.6,12.4c-1.2,0-2.5-0.1-3.7-0.3c-10.4-1.6-16.8-8.5-22.6-14.7
		c-7.4-8-11.1-16.5-13.1-21.4c-4.8-11.6-2.3-12.9-6.4-19.5c-4.6-7.5-11-11.2-23.3-18.4c-1.2-0.7-2.3-1.3-3.2-1.8
		c-7.7-4.1-9.1-3.5-15.9-8.3c-4.5-3.1-7.7-6.1-13.9-8.3c-5.3-1.8-9.2-1.8-10.9-1.8c-1.4,0.1-4.7,0.2-9.1,1.8
		c-6.4,2.2-9.7,6.2-13.9,8.3c-6.4,3.2-12.1,6.2-16,8.3c-1.2,0.7-2.3,1.3-3.2,1.8c-12.3,7.2-18.7,10.9-23.3,18.4
		c-4,6.6-1.5,8-6.4,19.5c-2,4.9-5.7,13.4-13.1,21.4c-5.8,6.1-12.2,13.1-22.6,14.7c-1.2,0.2-2.4,0.3-3.6,0.3c0,0,0,0,0,0
		c-9.9,0.3-20.7-4.2-25.7-12.4c-0.9-1.5-2.1-3.9-3-22.1c-0.8-15.8-0.1-17.5-0.7-24.4c-1.4-14.4-6.2-24.9-9.4-31.9
		c-6.9-15-11.4-16.6-21-31.9c-6.2-9.9-16.5-26.3-19.9-46.6c-1.2-7.1,0.4-21.3,3.7-49.9c3.2-27.6,5.3-38.5,0.7-52.6
		c-1.4-4.5-4.4-13.7-12-22.6c-4.4-5.1-6.6-5.7-11.2-10.9c-8.4-9.3-12-19.1-13.5-23.3c-3.2-9-3.4-19.1-3.7-39.1
		c-0.4-21.2,0.9-18.8,0-25.9c-2.3-19.5-9.8-22.9-14.7-41.7c-4.7-18.1-2.6-33.2-0.7-46.2c3.2-22.6,10.6-36.8,13.5-42.1
		C66.6,12.7,72.8,9.5,76.1,8.3c8-2.9,15.6-0.8,21,0.7c12.9,3.7,21.2,11.3,25.9,15.8c18.3,17.2,27.7,26.1,41.7,45.4
		c14.5,20,22.1,30.6,30.8,47.3c6.6,12.6,11.2,23.7,23.3,30c4.7,2.4,12.4,5.2,21.4,5.6c7.2,0.4,13.6-0.8,16.5-1.5
		c3-0.7,5-1.2,6.1-1.5c14.4-4.1,36-4.1,50.5,0c1.1,0.3,3.2,0.9,6.1,1.5s9.3,1.9,16.5,1.5c9-0.4,16.7-3.2,21.4-5.6
		c12.1-6.4,16.7-17.5,23.3-30c8.7-16.7,16.4-27.3,30.8-47.3c13.9-19.3,23.4-28.2,41.7-45.4c4.7-4.5,13-12,25.9-15.8
		c5.5-1.6,13.1-3.7,21-0.7c3.2,1.2,9.5,4.3,17.7,18.8c2.9,5.3,10.3,19.4,13.5,42.1c1.8,13,3.9,28-0.7,46.2
		C525.6,134.2,518.3,137.6,515.8,157.1z"/>
	<path class="st0" d="M400.1,550.6c-7.4,6.1-13.7,7.6-18.6,7.4c-15.8-0.8-23.7-18.8-38.9-21.8c-7.2-1.4-7.2,1.5-24.1,4.5
		c-7.3,1.3-31.8,5.1-60.6,0c-16.9-3.1-16.9-6-24.1-4.5c-15.2,3-23.1,21-38.9,21.8c-7,0.4-13.4-3-18.6-7.3c1.2,0,2.4-0.1,3.6-0.3
		c10.4-1.6,16.8-8.5,22.6-14.7c7.4-8,11.1-16.5,13.1-21.4c4.8-11.5,2.3-12.9,6.4-19.5c4.6-7.5,11-11.2,23.3-18.4
		c0.9-0.5,1.9-1.1,3.2-1.8c2.3,1.6,5.6,3.7,9.9,5.4c7.9,3.2,14.7,3.5,17.5,3.5c3.1,0,7.4-0.3,12.3-1.6c5,1.3,9.3,1.6,12.3,1.6
		c2.8,0,9.6-0.3,17.5-3.5c4.3-1.7,7.6-3.8,9.9-5.4c1,0.5,2,1.1,3.2,1.8c12.3,7.2,18.7,10.9,23.3,18.4c4,6.6,1.5,7.9,6.4,19.5
		c2,4.9,5.7,13.4,13.1,21.4c5.8,6.2,12.2,13.1,22.6,14.7C397.6,550.5,398.8,550.6,400.1,550.6z"/>
</g>
</svg>
